<svg xmlns="http://www.w3.org/2000/svg" viewBox="0 0 512 512">
  <rect width="512" height="512" rx="80" fill="#0f0f1a"/>
  <!-- Safe/box -->
  <rect x="140" y="100" width="232" height="200" rx="20" fill="#1a1a2e" stroke="#ff6b35" stroke-width="8"/>
  <!-- Lock shackle -->
  <path d="M200 120 L200 80 Q200 60 220 60 L292 60 Q312 60 312 80 L312 120" fill="none" stroke="#ff6b35" stroke-width="12" stroke-linecap="round"/>
  <!-- Keyhole -->
  <circle cx="256" cy="185" r="20" fill="none" stroke="#ff6b35" stroke-width="6"/>
  <rect x="250" y="200" width="12" height="30" rx="4" fill="#ff6b35"/>
  <!-- Key -->
  <path d="M160 340 L160 300" stroke="#e0e0e0" stroke-width="8" stroke-linecap="round" opacity="0.6"/>
  <circle cx="160" cy="340" r="18" fill="none" stroke="#e0e0e0" stroke-width="6" opacity="0.6"/>
  <rect x="166" y="348" width="40" height="6" rx="3" fill="#ff6b35" opacity="0.8"/>
  <rect x="166" y="360" width="30" height="6" rx="3" fill="#ff6b35" opacity="0.6"/>
  <!-- Env var lines -->
  <line x1="330" y1="350" x2="380" y2="350" stroke="#e0e0e0" stroke-width="5" stroke-linecap="round" opacity="0.3"/>
  <line x1="325" y1="375" x2="385" y2="375" stroke="#e0e0e0" stroke-width="5" stroke-linecap="round" opacity="0.2"/>
  <line x1="335" y1="400" x2="375" y2="400" stroke="#e0e0e0" stroke-width="5" stroke-linecap="round" opacity="0.25"/>
</svg>
